<?xml version="1.0" encoding="iso-8859-1"?>
<!DOCTYPE svg PUBLIC "-//W3C//DTD SVG 1.1//EN" "http://www.w3.org/Graphics/SVG/1.1/DTD/svg11.dtd">
<svg version="1.1" xmlns="http://www.w3.org/2000/svg" viewBox="0 0 285 285" style="enable-background:new 0 0 285 285;"
	 xml:space="preserve">
	<defs>
    <filter id="f3" width="200%" height="200%">
      <feOffset result="offOut" in="SourceAlpha" dx="15" dy="15" />
      <feGaussianBlur result="blurOut" in="offOut" stdDeviation="15" />
      <feBlend in="SourceGraphic" in2="blurOut" />
    </filter>
  </defs>
	<path fill="#fff" d="M282.082,195.285L149.028,62.24c-1.901-1.903-4.088-2.856-6.562-2.856s-4.665,0.953-6.567,2.856L2.856,195.285
		C0.95,197.191,0,199.378,0,201.853c0,2.474,0.953,4.664,2.856,6.566l14.272,14.271c1.903,1.903,4.093,2.854,6.567,2.854
		c2.474,0,4.664-0.951,6.567-2.854l112.204-112.202l112.208,112.209c1.902,1.903,4.093,2.848,6.563,2.848
		c2.478,0,4.668-0.951,6.57-2.848l14.274-14.277c1.902-1.902,2.847-4.093,2.847-6.566
		C285,199.378,283.984,197.188,282.082,195.285z" filter="url(#f3)"/>
</svg>
